<svg xmlns="http://www.w3.org/2000/svg" xmlns:xlink="http://www.w3.org/1999/xlink" width="1200" height="1200" viewBox="0 0 1200 1200"><circle stroke="none" fill="#0059B3" r="48%" cx="50%" cy="50%"></circle><g transform="translate(600 600) scale(-0.69 0.69) rotate(240) translate(-600 -600)" style="fill:#FFFFFF"><svg fill="#FFFFFF" xmlns:x="http://ns.adobe.com/Extensibility/1.0/" xmlns:i="http://ns.adobe.com/AdobeIllustrator/10.0/" xmlns:graph="http://ns.adobe.com/Graphs/1.0/" xmlns="http://www.w3.org/2000/svg" xmlns:xlink="http://www.w3.org/1999/xlink" version="1.1" x="0px" y="0px" viewBox="0 0 100 100" enable-background="new 0 0 100 100" xml:space="preserve"><g><g i:extraneous="self"><g><path fill="#FFFFFF" d="M50,5C25.187,5,5,25.187,5,50s20.187,45,45,45c24.813,0,45-20.187,45-45S74.813,5,50,5z M8.461,50     C8.461,27.096,27.096,8.461,50,8.461c0.118,0,0.235,0.007,0.353,0.009L61.654,43.39L43.042,44.16     c-0.463,0.019-0.83,0.4-0.83,0.864v33.242l-16.557,5.358C15.248,76.069,8.461,63.815,8.461,50z M61.306,45.136L43.942,75.627     V45.854L61.306,45.136z M50,91.538c-8.307,0-16.045-2.461-22.544-6.678l15.888-5.142c0.038-0.012,0.064-0.039,0.1-0.056     c0.039-0.019,0.073-0.037,0.108-0.061c0.097-0.064,0.176-0.144,0.237-0.238c0.012-0.016,0.03-0.022,0.041-0.039l19.64-34.501     c0.271-0.567,0.029-1.356-0.006-1.469L52.188,8.519C74.079,9.662,91.538,27.83,91.538,50C91.538,72.904,72.904,91.538,50,91.538z     "></path></g></g></g></svg></g></svg>